<?xml version="1.0" encoding="UTF-8" standalone="no"?>
<!DOCTYPE svg PUBLIC "-//W3C//DTD SVG 1.1//EN"
 "http://www.w3.org/Graphics/SVG/1.1/DTD/svg11.dtd">
<!-- Generated by graphviz version 2.40.1 (20161225.0304)
 -->
<!-- Title: models_diagram Pages: 1 -->
<svg width="713pt" height="581pt"
 viewBox="0.00 0.00 713.00 581.00" xmlns="http://www.w3.org/2000/svg" xmlns:xlink="http://www.w3.org/1999/xlink">
<g id="graph0" class="graph" transform="scale(1 1) rotate(0) translate(36 545)">
<title>models_diagram</title>
<polygon fill="#ffffff" stroke="transparent" points="-36,36 -36,-545 677,-545 677,36 -36,36"/>
<!-- shift -->
<g id="node1" class="node">
<title>shift</title>
<polygon fill="#add8e6" stroke="transparent" points="0,-220 0,-242 108,-242 108,-220 0,-220"/>
<polygon fill="none" stroke="#000000" points="0,-220 0,-242 108,-242 108,-220 0,-220"/>
<text text-anchor="start" x="45.112" y="-229" font-family="Times,serif" font-weight="bold" font-size="10.00" fill="#000000">shift</text>
<polygon fill="none" stroke="#000000" points="0,-198 0,-220 108,-220 108,-198 0,-198"/>
<text text-anchor="start" x="5" y="-207" font-family="Times,serif" text-decoration="underline" font-size="10.00" fill="#000000">id</text>
<text text-anchor="start" x="12.779" y="-207" font-family="Times,serif" font-size="10.00" fill="#000000">: NUMBER</text>
<polygon fill="none" stroke="#000000" points="0,-176 0,-198 108,-198 108,-176 0,-176"/>
<text text-anchor="start" x="5" y="-184" font-family="Times,serif" font-size="10.00" fill="#000000">name: TEXT</text>
<polygon fill="none" stroke="#000000" points="0,-154 0,-176 108,-176 108,-154 0,-154"/>
<text text-anchor="start" x="5" y="-162" font-family="Times,serif" font-size="10.00" fill="#000000">start: NUMBER</text>
<polygon fill="none" stroke="#000000" points="0,-132 0,-154 108,-154 108,-132 0,-132"/>
<text text-anchor="start" x="5" y="-140" font-family="Times,serif" font-size="10.00" fill="#000000">end: NUMBER</text>
<polygon fill="none" stroke="#000000" points="0,-110 0,-132 108,-132 108,-110 0,-110"/>
<text text-anchor="start" x="5" y="-118" font-family="Times,serif" font-size="10.00" fill="#000000">color: STRING</text>
<polygon fill="none" stroke="#000000" points="0,-88 0,-110 108,-110 108,-88 0,-88"/>
<text text-anchor="start" x="5" y="-96" font-family="Times,serif" font-size="10.00" fill="#000000">type: STRING</text>
<polygon fill="none" stroke="#000000" points="0,-66 0,-88 108,-88 108,-66 0,-66"/>
<text text-anchor="start" x="4.7075" y="-74" font-family="Times,serif" font-size="10.00" fill="#000000">amountHelper: STRING</text>
<polygon fill="none" stroke="#000000" points="0,-44 0,-66 108,-66 108,-44 0,-44"/>
<text text-anchor="start" x="5" y="-52" font-family="Times,serif" font-size="10.00" fill="#000000">createdAt: DATE</text>
<polygon fill="none" stroke="#000000" points="0,-22 0,-44 108,-44 108,-22 0,-22"/>
<text text-anchor="start" x="5" y="-30" font-family="Times,serif" font-size="10.00" fill="#000000">updatedAt: DATE</text>
<polygon fill="none" stroke="#000000" points="0,0 0,-22 108,-22 108,0 0,0"/>
<text text-anchor="start" x="5" y="-9" font-family="Times,serif" font-style="italic" text-decoration="underline" font-size="10.00" fill="#000000">location_id</text>
<text text-anchor="start" x="49.994" y="-9" font-family="Times,serif" font-size="10.00" fill="#000000">: NUMBER</text>
</g>
<!-- location -->
<g id="node2" class="node">
<title>location</title>
<polygon fill="#add8e6" stroke="transparent" points="272,-165 272,-187 355,-187 355,-165 272,-165"/>
<polygon fill="none" stroke="#000000" points="272,-165 272,-187 355,-187 355,-165 272,-165"/>
<text text-anchor="start" x="297.3925" y="-174" font-family="Times,serif" font-weight="bold" font-size="10.00" fill="#000000">location</text>
<polygon fill="none" stroke="#000000" points="272,-143 272,-165 355,-165 355,-143 272,-143"/>
<text text-anchor="start" x="277" y="-152" font-family="Times,serif" text-decoration="underline" font-size="10.00" fill="#000000">id</text>
<text text-anchor="start" x="284.779" y="-152" font-family="Times,serif" font-size="10.00" fill="#000000">: NUMBER</text>
<polygon fill="none" stroke="#000000" points="272,-121 272,-143 355,-143 355,-121 272,-121"/>
<text text-anchor="start" x="277" y="-129" font-family="Times,serif" font-size="10.00" fill="#000000">slug: UUID</text>
<polygon fill="none" stroke="#000000" points="272,-99 272,-121 355,-121 355,-99 272,-99"/>
<text text-anchor="start" x="277" y="-107" font-family="Times,serif" font-size="10.00" fill="#000000">name: STRING</text>
<polygon fill="none" stroke="#000000" points="272,-77 272,-99 355,-99 355,-77 272,-77"/>
<text text-anchor="start" x="277" y="-85" font-family="Times,serif" font-size="10.00" fill="#000000">createdAt: DATE</text>
<polygon fill="none" stroke="#000000" points="272,-55 272,-77 355,-77 355,-55 272,-55"/>
<text text-anchor="start" x="276.705" y="-63" font-family="Times,serif" font-size="10.00" fill="#000000">updatedAt: DATE</text>
</g>
<!-- location&#45;&gt;shift -->
<g id="edge2" class="edge">
<title>location&#45;&gt;shift</title>
<path fill="none" stroke="#000000" stroke-width=".75" d="M271.3872,-121C228.877,-121 162.4433,-121 114.1996,-121"/>
<polygon fill="#000000" stroke="#000000" stroke-width=".75" points="114.1126,-121.0001 108.1126,-118.3 111.1126,-121 108.1126,-121 108.1126,-121 108.1126,-121 111.1126,-121 108.1125,-123.7 114.1126,-121.0001 114.1126,-121.0001"/>
</g>
<!-- user -->
<g id="node3" class="node">
<title>user</title>
<polygon fill="#add8e6" stroke="transparent" points="281,-487 281,-509 396,-509 396,-487 281,-487"/>
<polygon fill="none" stroke="#000000" points="281,-487 281,-509 396,-509 396,-487 281,-487"/>
<text text-anchor="start" x="330.1715" y="-496" font-family="Times,serif" font-weight="bold" font-size="10.00" fill="#000000">user</text>
<polygon fill="none" stroke="#000000" points="281,-465 281,-487 396,-487 396,-465 281,-465"/>
<text text-anchor="start" x="286" y="-474" font-family="Times,serif" text-decoration="underline" font-size="10.00" fill="#000000">id</text>
<text text-anchor="start" x="293.779" y="-474" font-family="Times,serif" font-size="10.00" fill="#000000">: NUMBER</text>
<polygon fill="none" stroke="#000000" points="281,-443 281,-465 396,-465 396,-443 281,-443"/>
<text text-anchor="start" x="286" y="-451" font-family="Times,serif" font-size="10.00" fill="#000000">surname: STRING</text>
<polygon fill="none" stroke="#000000" points="281,-421 281,-443 396,-443 396,-421 281,-421"/>
<text text-anchor="start" x="286" y="-429" font-family="Times,serif" font-size="10.00" fill="#000000">lastname: STRING</text>
<polygon fill="none" stroke="#000000" points="281,-399 281,-421 396,-421 396,-399 281,-399"/>
<text text-anchor="start" x="286" y="-407" font-family="Times,serif" font-size="10.00" fill="#000000">password: STRING</text>
<polygon fill="none" stroke="#000000" points="281,-377 281,-399 396,-399 396,-377 281,-377"/>
<text text-anchor="start" x="286" y="-385" font-family="Times,serif" font-size="10.00" fill="#000000">email: STRING</text>
<polygon fill="none" stroke="#000000" points="281,-355 281,-377 396,-377 396,-355 281,-355"/>
<text text-anchor="start" x="286" y="-363" font-family="Times,serif" font-size="10.00" fill="#000000">phone: STRING</text>
<polygon fill="none" stroke="#000000" points="281,-333 281,-355 396,-355 396,-333 281,-333"/>
<text text-anchor="start" x="286" y="-341" font-family="Times,serif" font-size="10.00" fill="#000000">role: STRING</text>
<polygon fill="none" stroke="#000000" points="281,-311 281,-333 396,-333 396,-311 281,-311"/>
<text text-anchor="start" x="286" y="-319" font-family="Times,serif" font-size="10.00" fill="#000000">type: STRING</text>
<polygon fill="none" stroke="#000000" points="281,-289 281,-311 396,-311 396,-289 281,-289"/>
<text text-anchor="start" x="285.588" y="-297" font-family="Times,serif" font-size="10.00" fill="#000000">minimalHours: NUMBER</text>
<polygon fill="none" stroke="#000000" points="281,-267 281,-289 396,-289 396,-267 281,-267"/>
<text text-anchor="start" x="286" y="-275" font-family="Times,serif" font-size="10.00" fill="#000000">createdAt: DATE</text>
<polygon fill="none" stroke="#000000" points="281,-245 281,-267 396,-267 396,-245 281,-245"/>
<text text-anchor="start" x="286" y="-253" font-family="Times,serif" font-size="10.00" fill="#000000">updatedAt: DATE</text>
</g>
<!-- shift_user -->
<g id="node4" class="node">
<title>shift_user</title>
<polygon fill="#add8e6" stroke="transparent" points="553,-410 553,-432 641,-432 641,-410 553,-410"/>
<polygon fill="none" stroke="#000000" points="553,-410 553,-432 641,-432 641,-410 553,-410"/>
<text text-anchor="start" x="577.2835" y="-419" font-family="Times,serif" font-weight="bold" font-size="10.00" fill="#000000">shift_user</text>
<polygon fill="none" stroke="#000000" points="553,-388 553,-410 641,-410 641,-388 553,-388"/>
<text text-anchor="start" x="558" y="-396" font-family="Times,serif" font-size="10.00" fill="#000000">createdAt: DATE</text>
<polygon fill="none" stroke="#000000" points="553,-366 553,-388 641,-388 641,-366 553,-366"/>
<text text-anchor="start" x="558" y="-374" font-family="Times,serif" font-size="10.00" fill="#000000">updatedAt: DATE</text>
<polygon fill="none" stroke="#000000" points="553,-344 553,-366 641,-366 641,-344 553,-344"/>
<text text-anchor="start" x="558" y="-353" font-family="Times,serif" text-decoration="underline" font-size="10.00" fill="#000000">user_id</text>
<text text-anchor="start" x="587.436" y="-353" font-family="Times,serif" font-size="10.00" fill="#000000">: NUMBER</text>
<polygon fill="none" stroke="#000000" points="553,-322 553,-344 641,-344 641,-322 553,-322"/>
<text text-anchor="start" x="557.696" y="-331" font-family="Times,serif" text-decoration="underline" font-size="10.00" fill="#000000">shift_id</text>
<text text-anchor="start" x="588.251" y="-331" font-family="Times,serif" font-size="10.00" fill="#000000">: NUMBER</text>
</g>
<!-- user&#45;&gt;shift_user -->
<g id="edge1" class="edge">
<title>user&#45;&gt;shift_user</title>
<path fill="none" stroke="#000000" stroke-width=".75" d="M395.8023,-377C440.99,-377 503.1851,-377 546.4159,-377"/>
<polygon fill="#000000" stroke="#000000" stroke-width=".75" points="546.6523,-377.0001 552.6523,-379.7 549.6523,-377 552.6523,-377 552.6523,-377 552.6523,-377 549.6523,-377 552.6522,-374.3 546.6523,-377.0001 546.6523,-377.0001"/>
</g>
</g>
</svg>
